<svg width="553" height="299" viewBox="0 0 553 299" fill="none" xmlns="http://www.w3.org/2000/svg">
<path d="M528.545 99.1915H378C367.818 99.1915 359.545 89.7059 359.545 78.0314C359.545 66.3568 367.818 56.8712 378 56.8712H434.091C447.545 56.8712 458.455 44.3627 458.455 28.9356C458.455 13.5085 447.545 1 434.091 1H87.6364C79.7273 1 72.9091 7.9839 72.5455 17.0525C72.1818 26.7466 78.9091 34.7729 87.2727 34.7729H149C161 34.7729 170.727 45.9263 170.727 59.6856C170.727 73.4449 161 84.5983 149 84.5983H30.8182C14.3636 84.5983 1 99.9212 1 118.788C1 137.655 14.3636 152.978 30.8182 152.978H147C156.727 152.978 164.636 162.047 164.636 173.2C164.636 184.353 156.727 193.422 147 193.422H59.6364C46.7273 193.422 36.2727 205.409 36.2727 220.211C36.2727 235.013 46.7273 247 59.6364 247H462.091C475 247 485.455 235.013 485.455 220.211C485.455 205.409 475 193.422 462.091 193.422H360C350.273 193.422 342.364 184.353 342.364 173.2C342.364 162.047 350.273 152.978 360 152.978H528.545C541.455 152.978 552 140.991 552 126.085C552 111.179 541.455 99.1915 528.545 99.1915Z" stroke="#B7CBF9" stroke-miterlimit="10" stroke-linejoin="round" stroke-dasharray="3.5 3.5"/>
<path d="M400.9 187.9C406.7 187.5 412.5 187.3 418.2 186.8C420.5 197 423.2 206.5 426.3 213.9C450.3 199.9 466.5 186.3 480.6 173.4C484.2 170.1 487.5 167 490.1 164.6C490.9 163.8 491.7 163.1 492.5 162.3C494 160.9 494.9 160 494.9 160C494.9 160 500 150.6 498.4 146.5C498.9 146.2 500.1 146.1 500.6 146.7C502.8 149.3 502.3 152.9 502.3 152.9C502.3 152.9 514.1 142.3 514.6 143.7C515.1 145.1 509.6 151.3 509.6 151.3C509.6 151.3 519 142.9 519.1 144.4C519.1 145 519.1 144.4 512.2 153C512.2 153 520.5 147.6 519.8 149.3C519 151.5 513.6 156.6 513.6 156.6C513.6 156.6 520 152.5 519.4 153.9C518.8 155.3 503.7 168.6 503.7 168.6L499.7 174C496.3 178.2 493 182 489.8 185.4L486.1 189.8C442.3 242.1 417.9 242 415.3 240.8C410.7 240.3 400.7 216.6 391.5 188.6C394.7 188.4 397.8 188.2 400.9 187.9Z" fill="#B56D54"/>
<path d="M429.6 57.7996C428.2 58.2996 426.8 59.0996 425.5 60.0996C414 69.0996 418.7 89.1996 427.1 98.9996C431.8 104.4 439.1 107.4 446 105.6C456 103 460.2 92.2996 459.2 82.3996C458.5 74.9996 455.2 67.6996 449.7 62.8996C444.1 57.9996 436.3 55.3996 429.6 57.7996Z" fill="#C07556"/>
<path d="M422.2 86.0996L420.6 120.7C420.2 127.1 424.9 132.7 431.2 133.5C438.5 134.4 445 128.6 444.8 121.2L444.2 88.7996L422.2 86.0996Z" fill="#C07556"/>
<path d="M445 110.599V105.799C445 105.799 435.2 107.699 427.5 98.8994C427.5 98.9994 431.5 108.399 445 110.599Z" fill="#1E203F"/>
<path d="M424.3 92.6998C422.3 94.2998 419 94.6998 416.7 93.5998C414.3 92.4998 412.6 89.9998 412.2 87.1998C411.9 84.6998 412.8 82.0998 414.7 80.7998C416.6 79.4998 419.8 79.8998 421.1 81.9998L424.3 92.6998Z" fill="#C07556"/>
<path d="M419.6 88.5998C418.2 88.5998 417 87.6998 417 86.5998C417 85.7998 417.7 85.0998 418.6 84.7998" stroke="#954D35" stroke-width="0.5989" stroke-miterlimit="10"/>
<path d="M404 123.3C410.7 119.8 413 119.8 419.8 118L421.5 111.6L444.2 110.3C444.2 110.3 443.6 115 446.8 120.5C446.8 120.5 446.9 120.7 447.2 120.9C460.6 133.5 468 151.1 468.4 169.5C469 199.3 469 230.5 469.8 236.9L404 231.4C404 231.4 403.5 141.3 404 123.3Z" fill="#C07556"/>
<path d="M437.4 51.5997C438.3 49.4997 441.1 48.5997 443.3 49.1997C445.5 49.8997 447.2 51.7997 448.3 53.7997C449.2 55.3997 449.8 57.3997 451.5 58.2997C452.4 58.7997 453.4 58.8997 454.4 59.2997C456.8 60.1997 458.6 62.3997 458.9 64.9997C460.2 76.3997 444.2 71.9997 439.1 69.2997C443.3 71.5997 435.9 74.0997 434.7 74.1997C430.3 74.2997 426.9 71.7997 426.8 77.1997C426.7 80.3997 430.4 85.0997 426 87.2997C423.8 88.3997 421.2 86.9997 418.7 87.0997C415.4 87.2997 412.7 90.1996 409.4 90.5997C405.1 90.9997 401.3 85.7997 403.2 81.7997C404.4 79.1997 407.5 76.5997 406.1 74.0997C405.1 72.4997 402.6 72.0997 401.9 70.3997C401.1 68.3997 403.2 66.4997 405.1 65.4997C407 64.5997 409.4 63.3997 409.6 61.2997C409.9 58.2997 405.6 55.7997 407 53.1997C407.5 52.2997 408.5 51.8997 409.4 51.4997C412.2 50.3997 415.3 49.1997 418.1 50.1997C419.3 50.5997 420.3 51.3997 421.6 51.8997C422.8 52.2997 424.4 52.2997 425.1 51.2997C425.7 50.4997 425.6 49.2997 426.2 48.4997C427.4 46.6997 430.3 47.4997 432 48.8997C433.7 50.2997 435.2 51.8997 437.4 51.5997Z" fill="#14155B"/>
<path d="M404 123.3C410.7 119.8 412.8 119.9 419.6 118C422 121.6 426.2 125.7 432.7 125.9C444.1 126.2 446.8 120.4 446.8 120.4L454.7 122.4C456.9 123 459.1 123.7 461.2 124.7L488.8 158.9L462.8 187.9L468.5 170.2C469 199.1 485.1 264.6 485.8 270.9H402.8C402.7 271 403.5 141.3 404 123.3Z" fill="#6661F5"/>
<path d="M520.3 121.499L518.6 159.699C518.6 159.699 500.5 158.999 498.5 158.799C496.5 158.599 498.4 123.099 498.7 120.499C498.8 117.999 515.2 119.999 520.3 121.499Z" fill="#5558E4"/>
<path d="M501 123.499C501 124.499 501.7 125.299 502.7 125.399C503.7 125.399 504.5 124.699 504.6 123.699C504.6 122.699 503.9 121.899 502.9 121.799C501.9 121.699 501 122.499 501 123.499Z" fill="#382C49"/>
<path d="M399.9 178.3C405.7 177.9 411.5 177.7 417.2 177.2C419.5 187.4 422.2 196.9 425.3 204.3C449.3 190.3 465.5 176.7 479.6 163.8C483.2 160.5 486.5 157.4 489.1 155C489.9 154.2 490.7 153.5 491.5 152.7C493 151.3 493.9 150.4 493.9 150.4C493.9 150.4 499 141 497.4 136.9C497.9 136.6 499.1 136.5 499.6 137.1C501.8 139.7 501.3 143.3 501.3 143.3C501.3 143.3 513.1 132.7 513.6 134.1C514.1 135.5 508.6 141.7 508.6 141.7C508.6 141.7 518 133.3 518.1 134.8C518.1 135.4 518.1 134.8 511.2 143.4C511.2 143.4 519.5 138 518.8 139.7C518 141.9 512.6 147 512.6 147C512.6 147 519 142.9 518.4 144.3C517.8 145.7 502.7 159 502.7 159L498.7 164.4C495.3 168.6 492 172.4 488.8 175.8L485.1 180.2C441.3 232.5 416.9 232.4 414.3 231.2C409.7 230.7 399.7 207 390.5 179C393.7 178.8 396.8 178.6 399.9 178.3Z" fill="#C07556"/>
<path d="M404 123.3C404 123.3 386.5 130.6 389.5 170.2L391.3 189.3L427.1 180.4L404 123.3Z" fill="#6661F5"/>
<path d="M437.4 96.0997C439.996 96.0997 442.1 93.9954 442.1 91.3997C442.1 88.804 439.996 86.6997 437.4 86.6997C434.804 86.6997 432.7 88.804 432.7 91.3997C432.7 93.9954 434.804 96.0997 437.4 96.0997Z" fill="#DB6B50"/>
<path fill-rule="evenodd" clip-rule="evenodd" d="M450.3 87.4997C453.5 87.9997 451.8 93.5997 447.8 90.4997C447.3 90.0997 447.9 89.1997 448.4 89.5997C449 89.9997 450.1 90.9997 450.9 90.1997C451.6 89.2997 450.6 88.3997 450 87.9997C449.8 87.7997 450 87.3997 450.3 87.4997Z" fill="black"/>
<path fill-rule="evenodd" clip-rule="evenodd" d="M449.7 98.6996C449.8 98.8996 450 98.9996 450.3 99.0996C450.8 99.1996 451.2 98.7996 451.5 98.3996V98.2996C451.6 98.1996 451.9 98.0996 451.9 98.3996C452 99.2996 451 100.1 450.2 100.1C449.3 100.1 448.2 99.1996 448.4 98.1996C448.5 97.6996 449.2 97.6996 449.4 98.0996C449.6 98.1996 449.6 98.4996 449.7 98.6996Z" fill="black"/>
<path d="M82.2999 154.3L73.6999 158.3C72.2999 159 70.5999 158.5 69.5999 157.3L52.6999 134.7C51.2999 132.9 52.1999 130.2 54.3999 129.5L63.5999 126.6C64.8999 126.2 66.3999 126.6 67.2999 127.8L83.5999 149.3C84.7999 151 84.1999 153.4 82.2999 154.3Z" fill="#1C1F69"/>
<path d="M79.7996 151.9L72.7996 155.1C71.5996 155.6 70.1996 155.2 69.3996 154.2L55.2996 135.2C54.0996 133.6 54.7996 131.4 56.5996 130.9L64.0996 128.6C65.1996 128.3 66.3996 128.7 67.0996 129.6L80.6996 147.7C81.7997 149.2 81.2996 151.2 79.7996 151.9Z" fill="#DCDDEF"/>
<path d="M185.4 113.9C186.2 113.5 186.9 113 187.5 112.3C188.2 111.3 188.4 110.1 188.6 108.9C189.3 103.9 190 98.8997 189.5 93.8997C189 88.8997 187.4 83.8997 184 80.1997C184.6 81.2997 186.1 81.5997 187.2 81.0997C188.3 80.5997 189.1 79.5997 189.6 78.4997C190.7 75.9997 190.6 73.1997 190.2 70.5997C189.9 68.2997 189.3 65.7997 187.5 64.1997C186.6 63.3997 185.5 62.9997 184.4 62.5997C181.5 61.6997 178.5 61.1997 175.5 61.2997C174.5 61.2997 173.5 61.3997 172.7 61.8997C171.5 62.6997 171 64.0997 170.8 65.4997C170.3 68.5997 170.8 71.7997 172.3 74.5997C164.7 73.9997 157.6 78.1997 151.2 82.2997C150.8 82.5997 150.3 82.8997 150.2 83.3997C150.1 83.7997 150.3 84.2997 150.5 84.6997C154.8 93.5997 164.2 99.3997 168 108.5C169 111 169.4 113.5 170 116.1C170.6 118.8 170.4 117.7 172.4 117C174.4 116.3 176.8 116.7 178.9 116.3C180.9 115.9 183.2 115.1 185.4 113.9Z" fill="#14155B"/>
<path d="M215.6 143C215.6 143 243.6 155.9 266.4 186.6C271.5 193.6 274.4 201.7 268.8 208.3C263.7 214.3 253.2 212.5 246.5 208.3L195.9 173.2L215.6 143Z" fill="#63E1DB"/>
<path d="M113.7 291L143.8 226.4L178.1 228.3L172.7 291" fill="#0D1046"/>
<path d="M169.5 81.5998C170.7 82.0998 171.9 82.6998 173.1 83.5998C183.1 91.4998 179.1 109.1 171.7 117.6C167.6 122.3 161.2 125 155.2 123.4C146.4 121.1 142.8 111.8 143.7 103.1C144.3 96.5998 147.2 90.2998 152.1 85.9998C156.8 81.7998 163.7 79.4998 169.5 81.5998Z" fill="#C07556"/>
<path d="M176 106.4L177.4 136.7C177.7 142.3 173.7 147.2 168.1 147.9C161.7 148.7 156.1 143.6 156.2 137.1L156.7 108.8L176 106.4Z" fill="#C07556"/>
<path d="M156.1 127.9V123.7C156.1 123.7 164.7 125.4 171.4 117.6C171.4 117.6 167.9 125.9 156.1 127.9Z" fill="#1E203F"/>
<path d="M191.9 139C186 136 184.1 136 178.1 134.4L176.6 128.8L156.7 127.7C156.7 127.7 157.2 131.8 154.4 136.6C154.4 136.6 154.3 136.7 154 137C142.3 148 135.8 163.5 135.4 179.6C134.9 205.6 149.5 222.3 148.8 227.8L188.3 234.4C188.5 234.3 192.4 154.7 191.9 139Z" fill="#C07556"/>
<path d="M161.9 79.1997C159.2 79.8997 156.6 80.6997 154.1 81.1997C152.6 81.4997 151.1 81.7997 149.8 82.4997C146.6 84.2997 145.4 88.0997 144.6 91.5997C143.2 97.6997 146.8 97.6997 152 97.5997C157.5 97.4997 163.1 96.9997 168.1 94.6997C167.4 94.9997 169.7 99.6997 169.9 100.2C171 102 171.9 102.7 174.1 102.7C177.7 102.8 180.4 100.3 182.1 97.2997C184.9 92.3997 185.3 86.6997 181.5 82.1997C176.1 75.7997 168.9 77.2997 161.9 79.1997Z" fill="#14155B"/>
<path d="M83.7001 165.3C81.1 161.8 78.7 158.7 76.9 156.2C76.3 155.4 75.8001 154.6 75.2001 153.9C74.1 152.4 73.5 151.6 73.5 151.6C73.5 151.6 70.6 142.7 72.7001 139.4C72.3001 139 71.3001 138.8 70.7001 139.3C68.4001 141.2 68.3 144.4 68.3 144.4C68.3 144.4 59.8001 133.4 59.2001 134.5C58.5001 135.6 62.3001 141.8 62.3001 141.8C62.3001 141.8 55.6001 133 55.3001 134.4C55.2001 134.9 55.3001 134.4 59.9001 142.9C59.9001 142.9 53.6001 136.9 53.9001 138.5C54.3001 140.5 58.1001 145.7 58.1001 145.7C58.1001 145.7 53.2001 141.1 53.5001 142.4C53.8001 143.7 64.7001 157.5 64.7001 157.5L67.3001 162.8C69.6 166.9 71.8 170.7 74 174.2L76.5 178.6" fill="#AE654D"/>
<path d="M161.3 158.4C161.3 158.4 141.4 193.1 119.3 218.4C113.6 224.9 103.8 225.8 97.0999 220.4C90.9999 215.4 94.0999 206.6 98.0999 199.8L131 147.9L161.3 158.4Z" fill="#6661F5"/>
<path d="M124.3 204.1L76.7997 152L65.1997 165.2L95.6997 219.1L124.3 204.1Z" fill="#6661F5"/>
<path d="M145.7 291V225.5L194.3 216.9C194.4 216.9 194.3 218.2 195.2 220C207.7 245 194.2 274.1 191.7 291" fill="#14155B"/>
<path d="M187.8 134.9C187.8 134.9 206.3 136.9 226.4 148.8L201.1 230.1L137.8 229.1L128 158.7C126.7 154 128.7 148.9 133 146.2L148.1 138.3L156.1 134.3L166 133L175.4 132.1L187.8 134.9Z" fill="#6661F5"/>
<path d="M163.7 112.7C165.08 112.7 166.2 111.58 166.2 110.2C166.2 108.819 165.08 107.7 163.7 107.7C162.319 107.7 161.2 108.819 161.2 110.2C161.2 111.58 162.319 112.7 163.7 112.7Z" fill="#D37D66"/>
<path d="M147.4 113C148.781 113 149.9 111.88 149.9 110.5C149.9 109.119 148.781 108 147.4 108C146.019 108 144.9 109.119 144.9 110.5C144.9 111.88 146.019 113 147.4 113Z" fill="#D37D66"/>
<path fill-rule="evenodd" clip-rule="evenodd" d="M154.4 116.2C154.5 116.2 154.7 116.3 154.8 116.4C155.1 116.6 155.4 116.8 155.6 117C155.9 117.3 156.2 117.7 156.2 118.1C156.2 118.7 155.7 119.1 155.2 118.9C154.9 118.8 154.6 118.4 154.7 118C154.7 118 154.7 117.9 154.8 117.8C154.7 117.6 154.6 117.4 154.5 117.2C154.4 117 154.3 116.9 154.2 116.7C154.1 116.5 154 116.3 153.9 116.1V116C154.1 116.2 154.3 116.2 154.4 116.2ZM154.9 117.8C154.9 117.7 155 117.7 155 117.7C154.9 117.8 154.9 117.8 154.9 117.8ZM154.4 111.3C152 111.7 153.2 116 156.3 113.7C156.7 113.4 156.2 112.7 155.8 113C155.4 113.3 154.5 114.1 153.9 113.4C153.4 112.7 154.1 112 154.6 111.7C154.8 111.6 154.7 111.3 154.4 111.3Z" fill="black"/>
<path d="M279.2 66.4996C279.7 68.2996 280.1 70.0996 281 74.6996C281 74.6996 281.3 76.8996 284.7 77.8996C284.7 77.8996 283.6 78.8996 280.8 78.6996C280.8 78.6996 279.8 85.0996 281.5 88.0996C281.5 88.0996 278.6 85.4996 277 84.7996C277 84.7996 274.9 88.6996 273.2 90.6996C273.2 90.6996 272.4 71.9996 272.6 66.4996C272.6 66.4996 272.7 61.8996 275.6 62.2996C277.5 62.5996 278.7 64.5996 279.2 66.4996Z" fill="#ECEDED"/>
<path d="M227.5 66.4996C227 68.2996 226.6 70.0996 225.7 74.6996C225.7 74.6996 225.4 76.8996 222 77.8996C222 77.8996 223.1 78.8996 225.9 78.6996C225.9 78.6996 226.9 85.0996 225.2 88.0996C225.2 88.0996 228.1 85.4996 229.7 84.7996C229.7 84.7996 231.8 88.6996 233.5 90.6996C233.5 90.6996 234.3 71.9996 234.1 66.4996C234.1 66.4996 234 61.8996 231.1 62.2996C229.2 62.5996 228 64.5996 227.5 66.4996Z" fill="#ECEDED"/>
<path d="M239.3 83.0996L237.4 123.6C236.9 131.1 242.4 137.6 249.8 138.5C258.4 139.6 265.9 132.7 265.7 124.1L265 86.2996L239.3 83.0996Z" fill="#BF9A88"/>
<path d="M296.1 123.699C288.2 119.599 276.5 113.999 268.5 111.899L266.5 104.399L239.9 102.899C239.9 102.899 240.5 108.399 236.9 114.799C236.9 114.799 236.8 114.799 236.5 114.799C225.4 115.799 209.7 122.699 200.5 129.699C200.2 132.999 205.6 242.899 204.1 255.899L297.1 236.699C297.2 236.699 296.7 144.699 296.1 123.699Z" fill="#BF9A88"/>
<path d="M311 270.899L306.4 247.399H202.9H193.5L195.4 270.999" fill="#6661F5"/>
<path d="M314.1 130.5C306.3 126.5 276.6 114.1 268.7 112C265.9 116.2 260.9 121 253.4 121.2C240.1 121.6 236.9 114.8 236.9 114.8C236.9 114.8 236.8 114.8 236.5 114.8C225.4 115.8 191.7 125.6 182.5 132.6C182.2 135.9 187.9 249.8 186.3 262.8L313 259.3C313 259.3 315.7 173.6 315.1 152.6L314.1 130.5Z" fill="#3D2175"/>
<path d="M234.2 91.4995C237.6 99.0995 241.5 107.5 251 108.3C263.6 109.4 266.5 104 268.9 92.4995" fill="#9B6C59"/>
<path d="M251.3 47.9997C249.5 48.0997 247.7 48.4997 246 49.0997C230.1 55.1997 228.3 79.2997 234.4 93.0997C237.8 100.7 244.9 106.7 253.2 107C265.3 107.5 273.6 97.0997 276 85.5997C277.8 77.0997 276.6 67.7997 272.1 60.4997C267.5 53.1997 259.7 47.5997 251.3 47.9997Z" fill="#BF9A88"/>
<path d="M240.3 92.4998C243.117 92.4998 245.4 90.2165 245.4 87.3998C245.4 84.5832 243.117 82.2998 240.3 82.2998C237.484 82.2998 235.2 84.5832 235.2 87.3998C235.2 90.2165 237.484 92.4998 240.3 92.4998Z" fill="#B27670"/>
<path d="M268.9 92.4998C271.716 92.4998 274 90.2165 274 87.3998C274 84.5832 271.716 82.2998 268.9 82.2998C266.083 82.2998 263.8 84.5832 263.8 87.3998C263.8 90.2165 266.083 92.4998 268.9 92.4998Z" fill="#B27670"/>
<path d="M250.1 121.7C240.6 121.7 235.1 118.5 235 118.4C234.1 117.8 233.8 116.6 234.4 115.7C235 114.8 236.3 114.6 237.2 115.1C237.8 115.5 251.3 123.6 267.3 111.9C268.2 111.3 269.4 111.4 270.1 112.3C270.8 113.2 270.6 114.4 269.7 115C262.8 120.1 255.9 121.7 250.1 121.7Z" fill="#63E1DB"/>
<path fill-rule="evenodd" clip-rule="evenodd" d="M254.7 96.7996C253.9 96.7996 253 96.4996 252.5 96.2996L252.3 96.1996C251.8 95.9996 251.3 95.7996 250.9 95.3996C250.8 95.2996 250.6 95.0996 250.6 94.9996C250.6 94.8996 250.5 94.7996 250.6 94.6996C250.7 94.6996 250.9 94.6996 251 94.5996C251.1 94.5996 251.1 94.5996 251.2 94.5996C251.4 94.5996 251.5 94.5996 251.7 94.5996C251.7 94.5996 251.7 94.5996 251.8 94.5996C251.9 94.5996 252 94.5996 252.2 94.5996C252.6 94.5996 252.9 94.6996 253.3 94.6996C253.6 94.6996 253.8 94.6996 254.1 94.6996C254.8 94.6996 255.6 94.5996 256.1 95.0996C256.2 95.1996 256.3 95.3996 256.3 95.5996C256.3 95.7996 256.2 95.9996 256.1 96.1996C255.7 96.5996 255.2 96.6996 254.7 96.7996Z" fill="black"/>
<path d="M239.4 64.0996L252.5 63.1996C254.7 62.9996 256.9 62.8996 259 62.7996C261.2 62.6996 263.4 62.5996 265.6 62.6996C263.4 62.9996 261.2 63.0996 259.1 63.2996C256.9 63.3996 254.7 63.4996 252.6 63.5996L239.4 64.0996Z" fill="#CCADA2"/>
<path d="M237.3 68.2998L250.4 67.3998C252.6 67.1998 254.8 67.0998 256.9 66.9998C259.1 66.8998 261.3 66.7998 263.5 66.8998C261.3 67.1998 259.1 67.2998 257 67.4998C254.8 67.5998 252.6 67.6998 250.5 67.7998L237.3 68.2998Z" fill="#CCADA2"/>
<path d="M254.3 92.1999C254.4 93.0999 253.6 93.9999 252.7 93.9999C245.7 94.3999 243 92.0999 243.9 92.0999C247.2 91.9999 251 90.3999 251.9 90.2999C252.9 90.1999 254.3 91.1999 254.3 92.1999Z" fill="#F6F6F6"/>
<path d="M254.1 91.7999C253.9 92.6999 254.5 93.5999 255.4 93.7999C262.2 95.1999 265.4 92.7999 264.5 92.5999C261.3 91.9999 257.2 90.3999 256.3 90.1999C255.4 90.0999 254.3 90.8999 254.1 91.7999Z" fill="#F6F6F6"/>
<path fill-rule="evenodd" clip-rule="evenodd" d="M250.9 87.5997L251.1 87.7997L251.3 87.5997C251.7 87.2997 252.2 87.2997 252.6 87.4997L253.1 87.6997C253.9 87.9997 254.8 88.2997 255.7 88.3997C255.8 88.3997 255.8 88.3997 255.9 88.3997C256 88.3997 256 88.3997 256.1 88.3997C256.1 88.2997 256.1 88.2997 256 88.1997C256 88.0997 256 88.0997 255.9 87.9997C255.9 87.8997 255.9 87.8997 255.8 87.7997C255.7 87.5997 255.6 87.2997 255.5 87.0997C255.1 86.1997 254.4 85.3997 253.8 84.5997L253.7 84.4997C253.6 84.3997 253.5 84.2997 253.4 84.0997C252.9 83.4997 252.4 82.8997 252.3 82.1997C252.9 82.1997 253.4 82.4997 253.8 82.7997C254.4 83.1997 255 83.5997 255.5 84.0997C256.5 84.9997 257.5 86.2997 257.9 87.5997C258.2 88.3997 258.1 89.1997 257.8 89.7997C257.5 90.2997 257 90.6997 256.2 90.6997C254.7 90.7997 252.8 90.2997 251.4 89.5997C251 89.3997 250.8 89.0997 250.7 88.6997L250.6 87.9997" fill="black"/>
<path d="M262.6 238.5H234.8C232.5 238.5 230.7 236.7 230.7 234.4V190.8C230.7 188.5 232.5 186.7 234.8 186.7H262.6C264.9 186.7 266.7 188.5 266.7 190.8V234.4C266.7 236.7 264.9 238.5 262.6 238.5Z" fill="#DCDDEF"/>
<g opacity="0.29">
<g opacity="0.29">
<g opacity="0.29">
<path opacity="0.29" d="M248.7 220.5C249.308 220.5 249.8 220.007 249.8 219.4C249.8 218.792 249.308 218.3 248.7 218.3C248.093 218.3 247.6 218.792 247.6 219.4C247.6 220.007 248.093 220.5 248.7 220.5Z" fill="#315BA7"/>
</g>
</g>
<g opacity="0.29">
<path opacity="0.29" d="M248.7 231C242.1 231 236.7 225.6 236.7 219C236.7 214.2 239.6 209.8 244 207.9C244.5 207.7 245.1 207.9 245.3 208.4C245.5 208.9 245.3 209.5 244.8 209.7C241.1 211.3 238.7 214.9 238.7 219C238.7 224.5 243.2 229.1 248.8 229.1C254.3 229.1 258.9 224.6 258.9 219C258.9 214.9 256.4 211.2 252.6 209.7C252.1 209.5 251.9 208.9 252.1 208.4C252.3 207.9 252.9 207.7 253.4 207.9C258 209.7 260.9 214.1 260.9 219.1C260.8 225.6 255.4 231 248.7 231Z" fill="#315BA7"/>
</g>
<g opacity="0.29">
<path opacity="0.29" d="M248.7 215.2C248.2 215.2 247.7 214.8 247.7 214.2V204.7C247.7 204.2 248.1 203.7 248.7 203.7H252.3C252.8 203.7 253.3 204.1 253.3 204.7C253.3 205.3 252.9 205.7 252.3 205.7H249.7V214.2C249.6 214.8 249.2 215.2 248.7 215.2Z" fill="#315BA7"/>
</g>
<g opacity="0.29">
<path opacity="0.29" d="M248.7 225.6C245.3 225.6 242.5 222.8 242.5 219.4C242.5 216 245.3 213.2 248.7 213.2C252.1 213.2 254.9 216 254.9 219.4C254.9 222.8 252.1 225.6 248.7 225.6ZM248.7 215.2C246.4 215.2 244.5 217.1 244.5 219.4C244.5 221.7 246.4 223.6 248.7 223.6C251 223.6 252.9 221.7 252.9 219.4C252.9 217.1 251.1 215.2 248.7 215.2Z" fill="#315BA7"/>
</g>
</g>
<path d="M290.7 225.8C289.6 226.1 270.9 228.9 269.8 229.2C267.8 229.7 266.6 230 266.6 230C266.6 230 255.8 229.2 253.2 225.6C252.6 225.9 251.9 226.8 252.2 227.7C253.2 231 256.6 232.5 256.6 232.5C256.6 232.5 241.2 236.8 242.1 238C243 239.2 251.3 237.9 251.3 237.9C251.3 237.9 239 241.3 240.3 242.2C240.8 242.6 240.3 242.2 251.4 241C251.4 241 242.3 245.1 244.1 245.5C246.4 246 253.7 244.2 253.7 244.2C253.7 244.2 246.7 247.5 248.2 247.7C249.7 247.9 269.2 242.3 269.2 242.3L276 241.8C281.4 241.2 286.5 240.4 291.1 239.5" fill="#BF9A88"/>
<path d="M309.6 205.099L282.4 159.299C276.6 149.599 279.1 136.999 288.3 130.299C300.3 121.399 317.5 126.799 322.3 140.999L345.2 208.399C347.4 214.799 344.5 221.899 338.4 224.899C325.4 231.399 295.9 246.199 273.4 242.399L267.5 226.799L309.6 205.099Z" fill="#3D2175"/>
<path d="M272.9 250L281.8 245.9C283.3 245.2 284.1 243.8 283.8 242.5L278.1 218.9C277.6 217 275 216.2 273 217.4L264.5 222.5C263.3 223.2 262.6 224.5 262.9 225.7L268.2 248.3C268.6 250.1 270.9 251 272.9 250Z" fill="#1C1F69"/>
<path d="M207.9 224.8C209 225.1 227.7 227.9 228.8 228.2C230.8 228.7 232 229 232 229C232 229 242.8 228.2 245.4 224.6C246 224.9 246.7 225.8 246.4 226.7C245.4 230 242 231.5 242 231.5C242 231.5 257.4 235.8 256.5 237C255.6 238.2 247.3 236.9 247.3 236.9C247.3 236.9 259.6 240.3 258.3 241.2C257.8 241.6 258.3 241.2 247.2 240C247.2 240 256.3 244.1 254.5 244.5C252.2 245 244.9 243.2 244.9 243.2C244.9 243.2 251.9 246.5 250.4 246.7C248.9 246.9 229.4 241.3 229.4 241.3L222.6 240.8C217.2 240.2 212.1 239.4 207.5 238.5" fill="#B58E7F"/>
<path d="M189 206.099L216.2 160.299C222 150.599 219.5 137.999 210.3 131.299C198.3 122.399 181.1 127.799 176.3 141.999L153.4 209.399C151.2 215.799 154.1 222.899 160.2 225.899C173.2 232.399 202.7 247.199 225.2 243.399L231.1 227.799L189 206.099Z" fill="#3D2175"/>
<path d="M225.8 249L216.9 244.9C215.4 244.2 214.6 242.8 214.9 241.5L220.6 217.9C221.1 216 223.7 215.2 225.7 216.4L234.2 221.5C235.4 222.2 236.1 223.5 235.8 224.7L230.5 247.3C230.1 249.1 227.8 249.9 225.8 249Z" fill="#1C1F69"/>
<g clip-path="url(#clip0)">
<path d="M12.2998 127V131.6" stroke="#B7CBF9" stroke-miterlimit="10" stroke-linejoin="round"/>
<path d="M14.6 129.3H10" stroke="#B7CBF9" stroke-miterlimit="10" stroke-linejoin="round"/>
<path d="M388.4 26.2C388.4 27.4 387.4 28.4 386.2 28.4C385 28.4 384 27.4 384 26.2C384 25 385 24 386.2 24C387.4 24 388.4 24.9 388.4 26.2Z" stroke="#B7CBF9" stroke-miterlimit="10" stroke-linejoin="round"/>
<path d="M485.5 74.0001C486.715 74.0001 487.7 73.0151 487.7 71.8001C487.7 70.5851 486.715 69.6001 485.5 69.6001C484.285 69.6001 483.3 70.5851 483.3 71.8001C483.3 73.0151 484.285 74.0001 485.5 74.0001Z" stroke="#B7CBF9" stroke-miterlimit="10" stroke-linejoin="round"/>
<path d="M24.5999 100.6C25.8149 100.6 26.7999 99.6152 26.7999 98.4002C26.7999 97.1852 25.8149 96.2002 24.5999 96.2002C23.3849 96.2002 22.3999 97.1852 22.3999 98.4002C22.3999 99.6152 23.3849 100.6 24.5999 100.6Z" stroke="#B7CBF9" stroke-miterlimit="10" stroke-linejoin="round"/>
<path d="M90.3001 18.9C91.5151 18.9 92.5001 17.915 92.5001 16.7C92.5001 15.485 91.5151 14.5 90.3001 14.5C89.0851 14.5 88.1001 15.485 88.1001 16.7C88.1001 17.915 89.0851 18.9 90.3001 18.9Z" stroke="#B7CBF9" stroke-miterlimit="10" stroke-linejoin="round"/>
<path d="M398 26H423" stroke="#B7CBF9" stroke-miterlimit="10" stroke-linejoin="round"/>
<path d="M430.6 26H441.7" stroke="#B7CBF9" stroke-miterlimit="10" stroke-linejoin="round"/>
<path d="M515.8 134.3H534" stroke="#B7CBF9" stroke-miterlimit="10" stroke-linejoin="round"/>
</g>
<path d="M514 299H217C207.6 299 200 291.4 200 282C200 272.6 207.6 265 217 265H514C523.4 265 531 272.6 531 282C531 291.4 523.4 299 514 299Z" fill="url(#paint0_linear)"/>
<path d="M324.1 48.4995C322.7 51.6995 321.7 55.1995 319 57.3995C317.2 58.8995 314.6 59.5995 313.6 61.6995C312.9 63.0995 313 64.6995 313.2 66.1995C313.8 70.8995 314.7 75.6995 313.6 80.1995C312.6 84.0995 310.3 87.3995 308.7 90.9995C307.1 94.6995 306.5 99.1996 308.8 102.4C311.8 106.6 318 106.5 323 108C329.2 109.9 334.3 114.9 340.7 115.4C346 115.9 351 113 356 111.1C361.7 108.9 367.7 107.9 373.8 108C378.5 108.1 384.7 105.2 388.2 102C391.3 99.0995 393.1 94.2995 391.5 90.3995C390 86.5995 385.7 84.1995 384.9 80.0995C384.7 79.0995 384.7 77.9995 384.5 76.9995C383.4 71.5995 376.5 69.0995 375.1 63.7995C374.7 62.2995 374.8 60.7995 374.6 59.2995C374.4 57.7995 373.8 56.3995 373.1 54.9995C368.3 44.8995 357.7 33.9995 345.6 34.9995C340.2 35.4995 337 38.8995 332.5 41.1995C328.5 43.1995 326 44.0995 324.1 48.4995Z" fill="black"/>
<path d="M334.7 80.9995L332.9 119.5C332.5 126.6 337.6 132.8 344.7 133.7C352.9 134.7 360 128.2 359.8 120L359.1 83.9995L334.7 80.9995Z" fill="#B27C66"/>
<path d="M387.6 127.599C380.1 123.699 368.9 118.399 361.4 116.299L359.5 109.199L334.3 107.799C334.3 107.799 334.9 112.999 331.4 119.099C331.4 119.099 331.3 119.099 331 119.099C320.5 119.999 305.5 126.599 296.8 133.299C296.6 136.399 301.7 240.899 300.2 253.199L388.6 234.899C388.6 234.899 388.2 147.599 387.6 127.599Z" fill="#B27C66"/>
<path d="M402.701 271L397.401 245.2H299.001H290.101L291.701 271" fill="#6661F5"/>
<path d="M387.6 127.599C380.2 123.799 369.1 118.399 361.5 116.399C358.8 120.399 354.1 124.999 347 125.199C334.4 125.599 331.4 119.099 331.4 119.099C331.4 119.099 331.3 119.099 331 119.099C320.5 119.999 305.4 125.499 296.6 132.199C296.4 135.299 284.8 247.399 283.3 259.699L403.7 256.399C403.7 256.299 388.2 147.599 387.6 127.599Z" fill="#63E1DB"/>
<path d="M413.7 146.999C409 132.399 400 131.099 385.8 125.399L362.9 116.399L371.7 270.999H414.7" fill="#14155B"/>
<path d="M268.7 160.999C273.4 146.399 271.7 132.999 300 127.399L322.7 120.399L314.2 270.999H273.8L268.7 160.999Z" fill="#14155B"/>
<path d="M329.7 88.9995C332.9 96.2995 336.7 104.2 345.7 105C357.7 106 360.5 100.9 362.7 89.9995" fill="#9B6C59"/>
<path d="M346.101 47.6995C344.401 47.7995 342.701 48.0995 341.001 48.7995C325.901 54.5995 324.201 77.4994 329.901 90.5994C333.101 97.8994 339.901 103.499 347.801 103.799C359.301 104.299 367.201 94.3995 369.401 83.4995C371.101 75.3995 369.901 66.5995 365.701 59.5995C361.501 52.5995 354.001 47.2995 346.101 47.6995Z" fill="#B27C66"/>
<path d="M365.1 55.9995C365.5 55.6995 365.9 55.4995 366 54.9995C366.2 54.4995 366 53.9995 365.8 53.4995C362.8 45.3995 353.8 39.9995 345.2 41.0995C342.1 41.4995 339.1 42.5995 336.3 44.1995C334.5 45.1995 332.8 46.3995 331.4 47.8995C328.7 50.7995 327.3 54.7995 326.8 58.6995C326.5 61.3995 325.5 66.9995 328.1 68.8995C330.6 70.6995 336.3 68.3995 338.9 67.6995C348.2 65.1995 357.1 61.2995 365.1 55.9995Z" fill="black"/>
<path d="M349.3 95.2998C346.9 95.2998 345 94.2998 344.8 94.2998C344.5 94.1998 344.4 93.7998 344.5 93.4998C344.6 93.1998 345 93.0998 345.3 93.1998C345.3 93.1998 349.3 95.1998 352.5 93.1998C352.8 92.9998 353.1 93.0998 353.3 93.3998C353.5 93.6998 353.4 93.9998 353.1 94.1998C351.9 95.0998 350.6 95.2998 349.3 95.2998Z" fill="#160707"/>
<path fill-rule="evenodd" clip-rule="evenodd" d="M351.101 80.9997C352.101 81.6997 353.701 83.1997 352.601 84.8997C351.301 86.3997 349.401 84.6997 348.401 83.8997C347.501 83.2997 346.601 84.7997 347.401 85.4997C354.201 90.7997 356.901 81.1997 351.601 80.1997C351.101 80.0997 350.801 80.7997 351.101 80.9997Z" fill="black"/>
<path d="M336.6 91.7997C339.251 91.7997 341.4 89.6507 341.4 86.9997C341.4 84.3487 339.251 82.1997 336.6 82.1997C333.949 82.1997 331.8 84.3487 331.8 86.9997C331.8 89.6507 333.949 91.7997 336.6 91.7997Z" fill="#E08580"/>
<path d="M361.7 91.7997C364.351 91.7997 366.5 89.6507 366.5 86.9997C366.5 84.3487 364.351 82.1997 361.7 82.1997C359.049 82.1997 356.9 84.3487 356.9 86.9997C356.9 89.6507 359.049 91.7997 361.7 91.7997Z" fill="#E08580"/>
<path d="M357.6 248H329.8C327.5 248 325.7 246.2 325.7 243.9V200.3C325.7 198 327.5 196.2 329.8 196.2H357.6C359.9 196.2 361.7 198 361.7 200.3V243.9C361.7 246.2 359.9 248 357.6 248Z" fill="#DCDDEF"/>
<g opacity="0.29">
<g opacity="0.29">
<g opacity="0.29">
<path opacity="0.29" d="M344.2 226.7C344.808 226.7 345.3 226.207 345.3 225.6C345.3 224.992 344.808 224.5 344.2 224.5C343.593 224.5 343.1 224.992 343.1 225.6C343.1 226.207 343.593 226.7 344.2 226.7Z" fill="#3F79E3"/>
</g>
</g>
<g opacity="0.29">
<path opacity="0.29" d="M344.2 237.2C337.6 237.2 332.2 231.8 332.2 225.2C332.2 220.4 335.1 216 339.5 214.1C340 213.9 340.6 214.1 340.8 214.6C341 215.1 340.8 215.7 340.3 215.9C336.6 217.5 334.2 221.1 334.2 225.2C334.2 230.7 338.7 235.3 344.3 235.3C349.9 235.3 354.4 230.8 354.4 225.2C354.4 221.1 351.9 217.4 348.1 215.9C347.6 215.7 347.4 215.1 347.6 214.6C347.8 214.1 348.4 213.9 348.9 214.1C353.5 215.9 356.4 220.3 356.4 225.3C356.2 231.8 350.8 237.2 344.2 237.2Z" fill="#3F79E3"/>
</g>
<g opacity="0.29">
<path opacity="0.29" d="M344.1 221.399C343.6 221.399 343.1 220.999 343.1 220.399V210.899C343.1 210.399 343.5 209.899 344.1 209.899H347.7C348.2 209.899 348.7 210.299 348.7 210.899C348.7 211.399 348.3 211.899 347.7 211.899H345.1V220.399C345.1 220.899 344.6 221.399 344.1 221.399Z" fill="#3F79E3"/>
</g>
<g opacity="0.29">
<path opacity="0.29" d="M344.2 231.699C340.8 231.699 338 228.899 338 225.499C338 222.099 340.8 219.299 344.2 219.299C347.6 219.299 350.4 222.099 350.4 225.499C350.3 228.999 347.6 231.699 344.2 231.699ZM344.2 221.399C341.9 221.399 340 223.299 340 225.599C340 227.899 341.9 229.799 344.2 229.799C346.5 229.799 348.4 227.899 348.4 225.599C348.4 223.199 346.5 221.399 344.2 221.399Z" fill="#3F79E3"/>
</g>
</g>
<path d="M382.5 224.599C381.5 224.899 363.7 227.599 362.7 227.799C360.8 228.299 359.6 228.599 359.6 228.599C359.6 228.599 349.4 227.799 346.9 224.399C346.3 224.699 345.7 225.599 345.9 226.299C346.8 229.399 350.1 230.899 350.1 230.899C350.1 230.899 335.4 234.999 336.3 236.099C337.2 237.299 345 235.999 345 235.999C345 235.999 333.3 239.199 334.5 240.099C335 240.399 334.5 240.099 345 238.899C345 238.899 336.3 242.799 338.1 243.199C340.3 243.699 347.2 241.899 347.2 241.899C347.2 241.899 340.5 244.999 342 245.199C343.4 245.399 362 239.999 362 239.999L368.5 239.499C373.7 238.899 378.4 238.199 382.9 237.299" fill="#B27C66"/>
<path d="M303.8 223.599C304.8 223.899 322.6 226.599 323.6 226.799C325.5 227.299 326.7 227.599 326.7 227.599C326.7 227.599 336.9 226.799 339.4 223.399C340 223.699 340.6 224.599 340.4 225.299C339.5 228.399 336.2 229.899 336.2 229.899C336.2 229.899 350.9 233.999 350 235.099C349.1 236.299 341.3 234.999 341.3 234.999C341.3 234.999 353 238.199 351.8 239.099C351.3 239.399 351.8 239.099 341.3 237.899C341.3 237.899 350 241.799 348.2 242.199C346 242.699 339.1 240.899 339.1 240.899C339.1 240.899 345.8 243.999 344.3 244.199C342.9 244.399 324.3 238.999 324.3 238.999L317.8 238.499C312.6 237.899 307.9 237.199 303.4 236.299" fill="#A87462"/>
<path d="M285.9 205.9L311.8 162.4C317.3 153.1 314.9 141.2 306.2 134.8C294.8 126.4 278.5 131.5 273.9 144.9L252.1 209C250 215.1 252.8 221.8 258.5 224.7C270.9 230.9 298.9 245 320.2 241.3L325.8 226.5L285.9 205.9Z" fill="#14155B"/>
<path d="M400.4 204.9L374.5 161.4C369 152.1 371.4 140.2 380.1 133.8C391.5 125.4 407.8 130.5 412.4 143.9L434.201 208C436.3 214.1 433.5 220.8 427.8 223.7C415.4 229.9 387.4 244 366.1 240.3L360.5 225.5L400.4 204.9Z" fill="#14155B"/>
<path d="M365.5 247.599L374 243.699C375.4 243.099 376.2 241.699 375.9 240.399L370.4 217.999C370 216.199 367.5 215.399 365.5 216.599L357.4 221.399C356.2 222.099 355.6 223.299 355.9 224.499L361 245.999C361.5 247.699 363.6 248.499 365.5 247.599Z" fill="#1C1F69"/>
<path d="M320.801 246.599L312.301 242.699C310.901 242.099 310.101 240.699 310.401 239.399L315.901 216.999C316.301 215.199 318.801 214.399 320.801 215.599L328.901 220.399C330.101 221.099 330.701 222.299 330.401 223.499L325.301 244.999C324.901 246.699 322.701 247.499 320.801 246.599Z" fill="#1C1F69"/>
<defs>
<linearGradient id="paint0_linear" x1="386.495" y1="310.218" x2="412.5" y2="197.5" gradientUnits="userSpaceOnUse">
<stop stop-color="#14155B"/>
<stop offset="0.9179" stop-color="#474BAB"/>
</linearGradient>
<clipPath id="clip0">
<rect x="10" y="14" width="524" height="120.8" fill="white"/>
</clipPath>
</defs>
</svg>
